<?xml version="1.0" encoding="utf-8" ?><svg xmlns="http://www.w3.org/2000/svg" xmlns:xlink="http://www.w3.org/1999/xlink" width="1600" height="1600" viewBox="0 0 1600 1600"><path fill="#161856" d="M330.249 623.442L372.315 623.444C375.258 633.775 378.332 644.068 381.535 654.32C390.247 656.475 398.118 658.44 406.576 661.628L430.97 639.208C441.315 644.654 457.587 654.648 467.624 661.128C465.257 672.352 463.002 682.611 460.094 693.695C466.642 700.008 472.291 705.607 478.495 712.273C488.258 709.89 501.165 707.108 510.536 704.233C517.895 716.083 525.027 728.072 531.929 740.194C524.746 748.304 517.18 757.134 509.754 764.929C512.961 773.563 514.335 780.406 516.765 789.052C527.575 792.239 538.332 795.607 549.03 799.156C548.79 813.082 548.722 827.011 548.825 840.939C540.153 844.454 525.96 848.978 516.82 851.4C515.199 860.259 513.129 866.429 509.937 874.874C516.519 882.517 525.234 892.067 531.294 899.861C524.344 912.459 516.843 924.746 508.812 936.685C498.381 933.73 487.886 931.004 477.335 928.507C471.068 935.186 465.815 940.572 458.872 946.655C462.177 957.494 464.171 967.417 466.08 978.572L430.892 999.058L405.884 976.749C396.776 980.086 390.737 981.679 381.118 983.17C379.04 993.235 375.307 1005.05 372.148 1014.94L330.194 1014.74C327.344 1003.89 324.135 993.131 320.572 982.491C312.579 980.365 304.613 978.311 296.719 975.831C288.363 983.466 279.966 991.056 271.528 998.601C260.178 991.77 246.81 983.229 235.356 976.984C237.916 966.584 240.888 955.371 243.085 944.964C237.222 939.194 231.422 933.359 225.687 927.462C215.02 930.26 204.279 932.768 193.476 934.983C185.842 923.113 178.432 911.1 171.25 898.952C178.638 890.972 185.974 883.288 192.708 874.743C189.983 866.48 188.308 859.67 186.269 851.25C175.887 847.876 164.982 844.509 154.717 840.909L154.604 799.617C164.844 795.592 176.052 792.165 186.581 788.759C188.58 780.302 190.36 773.098 192.885 764.743L171.071 740.138C178.081 728.398 185.171 716.13 192.34 704.537C203.391 707.085 214.605 709.925 225.618 712.371C230.473 706.285 237.4 699.471 243.169 694.159C240.315 683.023 238.115 672.403 235.799 661.134L271.848 639.381C280.094 646.683 288.293 654.039 296.444 661.448C303.278 659.239 317.619 657.159 322.085 652.384C322.663 651.766 323.079 647.725 323.216 646.543C323.584 644.152 324.358 642.122 325.114 639.83C326.912 634.456 328.875 628.92 330.249 623.442Z"/><path fill="#FEFEFE" d="M325.114 639.83C356.857 658.028 368.877 667.033 387.536 699.399C424.52 715.101 450.088 734.162 465.667 772.794C478.001 803.431 477.715 837.703 464.873 868.13C451.734 898.545 427.946 923.065 396.899 935.202C366.233 947.084 332.106 946.32 302.003 933.076C271.622 919.622 247.961 894.47 236.387 863.325C224.667 832.199 225.82 797.688 239.591 767.414C253.268 737.701 278.242 714.679 308.968 703.46C315.883 700.866 323.009 698.869 330.266 697.491C330.474 676.74 329.968 666.376 323.216 646.543C323.584 644.152 324.358 642.122 325.114 639.83Z"/><defs><linearGradient id="gradient_0" gradientUnits="userSpaceOnUse" x1="363.64188" y1="668.58099" x2="345.49707" y2="927.60022"><stop offset="0" stop-color="#F5981D"/><stop offset="1" stop-color="#E84025"/></linearGradient></defs><path fill="url(#gradient_0)" d="M341.193 664.59C346.327 667.541 355.955 676.829 359.957 681.497C384.045 709.594 397.334 747.032 399.73 783.709C400.663 797.99 399.84 810.524 399.04 824.589C411.867 798.643 414.252 784.29 410.139 755.73C422.24 768.666 431.569 783.939 437.553 800.611C446.734 826.186 448.376 857.337 436.024 882.044C422.472 909.151 400.711 921.428 373.449 930.841C413.655 896.899 381.733 883.628 373.574 846.494C369.389 858.033 369.207 861.568 370.561 873.424C352.612 855.401 347.925 843.055 349.316 817.937L351.578 804.498C324.425 827.897 316.412 853.162 325.789 887.472C313.56 871.859 312.55 864.876 312.516 845.25C293.808 876.213 298.2 904.25 324.742 928.216C268.872 915.768 242.755 848.921 269.165 800.245C281.33 777.822 292.29 766.181 296.562 740.176C306.607 755.894 305.951 768.171 302.67 785.885L303.305 785.004C331.374 746.04 349.344 714.75 341.193 664.59Z"/><path fill="#FEFEFE" d="M308.109 687.149L308.699 688.534C289.189 694.791 265.128 712.526 251.579 727.793C229.804 752.329 215.898 783.415 214.277 816.366C213.839 825.264 214.91 835.759 215.418 844.775C207.237 816.824 213.032 778.047 226.521 752.494C244.577 718.288 272.105 698.731 308.109 687.149Z"/><path fill="#FEFEFE" d="M489.289 820.965C491.6 824.029 490.266 829.968 490.674 834.526C490.125 864.465 474.492 898.457 452.997 919.094C439.266 932.46 422.793 942.682 404.721 949.051C398.499 951.31 390.43 953.477 384.668 955.829L383.132 954.52C449.155 931.716 481.135 889.484 489.289 820.965Z"/><path fill="#F0EEF6" d="M488.39 795.837C490.263 805.668 493.233 824.645 490.674 834.526C490.266 829.968 491.6 824.029 489.289 820.965C488.95 812.785 488.415 803.978 488.39 795.837Z"/><path fill="#5B5D96" d="M368.935 957.78C373.287 956.327 378.594 954.864 383.132 954.52L384.668 955.829C378.882 956.798 374.767 957.533 368.935 957.78Z"/><path fill="#8283AF" d="M308.109 687.149C310.94 686.062 313.437 684.824 316.455 684.859C315.13 686.597 310.966 687.708 308.699 688.534L308.109 687.149Z"/><path fill="#1666AB" d="M793.616 717.538C821.076 713.98 846.187 733.445 849.587 760.925C852.986 788.404 833.377 813.402 805.878 816.644C778.603 819.859 753.851 800.443 750.479 773.187C747.107 745.93 766.38 721.067 793.616 717.538ZM805.71 795.794C821.562 792.614 831.807 777.154 828.559 761.316C825.31 745.479 809.805 735.301 793.982 738.618C778.256 741.915 768.153 757.304 771.382 773.045C774.611 788.785 789.956 798.954 805.71 795.794Z"/><path fill="#1666AB" d="M618.193 689.261L637.793 689.297C644.888 697.526 653.817 709.655 660.697 718.46L706.236 776.494L706.044 689.38L728.126 689.245L728.192 814.612L708.401 814.515C686.104 785.175 663.455 756.104 640.456 727.31L640.624 814.235L618.097 814.144C618.675 772.982 618.13 730.559 618.193 689.261Z"/><path fill="#ED6621" d="M1389.85 718.244C1429.37 715.839 1440.09 740.836 1441.45 775.045L1369.88 775.008C1380.79 802.025 1400.79 804.682 1422.88 787.731C1427.34 791.589 1431.71 795.56 1435.97 799.641C1418.47 818.126 1390 823.439 1368.63 808.307C1357.96 800.771 1350.81 789.224 1348.81 776.313C1344.26 747.481 1360.26 723.081 1389.85 718.244ZM1369.58 760.181L1401.54 760.181L1420.69 760.251C1414.71 743.668 1409.99 734.885 1390.16 736.907C1376.93 742.158 1373.52 746.211 1369.58 760.181Z"/><path fill="#1666AB" d="M997.514 719.046C999.789 718.909 1002.07 718.82 1004.35 718.78C1032.01 718.461 1045.62 731.748 1046.04 759.333C1046.32 777.672 1046.22 795.839 1046.1 814.2L1024.29 814.097L1025.03 803.596C1007.24 819.517 986.205 821.663 967.335 805.988C962.043 799.719 959.031 792.021 959.958 783.826C963.667 751.022 1002.37 755.831 1024.82 758.626C1020.22 727.947 995.346 735.4 974.204 743.577C972.652 738.097 970.647 732.212 968.907 726.746C978.695 721.783 986.767 720.352 997.514 719.046ZM1007.17 799.647C1023.23 793.835 1023.97 789.194 1024.58 772.797C1015.68 771.092 1008.91 770.424 999.857 770.544C993.465 771.623 987.672 772.55 983.544 778.315C981.449 781.223 980.722 784.899 981.553 788.386C984.366 800.521 997.412 800.592 1007.17 799.647Z"/><path fill="#ED6621" d="M1119.72 689.142L1217.33 689.236L1217.53 709.372L1141.64 709.36C1141.79 720.842 1141.89 732.326 1141.92 743.809L1207.77 743.81L1208.69 744.153C1211.28 747.615 1210.3 759.005 1210.22 764.046C1187.35 763.906 1164.48 763.89 1141.62 763.999C1142.56 776.115 1141.96 801.236 1142.07 814.546L1119.7 814.533C1120.52 773.586 1119.63 730.366 1119.72 689.142Z"/><path fill="#1666AB" d="M855.213 719.862C862.348 719.414 871.56 719.603 878.851 719.544C887.427 742.372 896.284 765.094 905.42 787.705L931.016 719.762C938.677 719.647 946.34 719.662 954.001 719.807L946.084 739.093L915.119 814.95L895.1 815.014C882.179 786.323 866.769 749.213 855.213 719.862Z"/><path fill="#ED6621" d="M718.437 867.477C724.724 867.918 729.21 868.711 734.808 871.932C741.375 875.686 746.141 881.94 748.019 889.267C750.911 900.516 747.828 908.974 742.406 918.455L750.264 927.103C746.59 930.609 739.35 937.622 733.55 934.647L733.585 933.273C736.026 930.702 739.346 930.082 742.842 928.929L736.903 923.17C690.352 948.267 669.817 874.222 718.437 867.477ZM729.647 915.4C727.167 913.165 725.126 911.83 724.058 908.739L724.163 906.81C729.093 903.531 734.027 910.291 736.872 913.426C748.021 894.005 739.053 873.589 715.642 874.377C707.848 877.704 703.16 880.426 699.797 888.773C692.79 906.166 709.022 929.623 728.279 920.141C729.913 919.336 730.43 919.255 731.552 917.728C730.794 916.716 730.525 916.311 729.647 915.4Z"/><path fill="#ED6621" d="M1172.01 868.313C1188.46 865.558 1204.01 876.705 1206.68 893.166C1209.35 909.626 1198.13 925.121 1181.65 927.712C1165.3 930.285 1149.93 919.156 1147.28 902.811C1144.63 886.466 1155.68 871.048 1172.01 868.313ZM1180.23 920.723C1192.84 919.048 1201.67 907.426 1199.91 894.828C1198.15 882.23 1186.47 873.476 1173.88 875.324C1161.42 877.154 1152.77 888.7 1154.51 901.176C1156.26 913.652 1167.74 922.382 1180.23 920.723Z"/><path fill="#ED6621" d="M1332.14 718.135C1335.81 718.045 1334.29 717.52 1337.05 719.13C1340.16 724.483 1338.98 733.181 1338.72 739.596C1296.29 743.916 1304.01 783.128 1304.7 814.81L1283.09 814.827L1282.93 807.708L1282.92 719.727C1290.29 719.558 1297.96 719.629 1305.35 719.589L1305.39 737.059C1313.3 725.266 1318.21 721.296 1332.14 718.135Z"/><path fill="#ED6621" d="M1071.09 868.801C1083.7 868.581 1101.87 866.888 1112.12 874.963C1127.08 886.735 1125.88 904.986 1115.21 918.832C1102.94 929.44 1086.34 927.574 1071.05 927.404L1071.09 868.801ZM1078.19 920.924C1090.02 921.093 1099.64 922.231 1109.39 914.362C1111.91 910.886 1114.44 907.663 1115.27 903.407C1120.42 876.999 1095.93 875.031 1078.27 875.265L1078.19 920.924Z"/><path fill="#ED6621" d="M1234.44 719.581L1256.29 719.593L1256.28 814.763L1234.41 814.811L1234.44 719.581Z"/><path fill="#ED6621" d="M1234.8 868.806C1246.4 868.562 1260.41 867.458 1271.47 870.981C1282.22 874.406 1283.96 885.117 1280.16 894.595C1277.53 901.163 1273.3 902.692 1267.24 905.4C1272.07 911.607 1278.97 920.077 1282.45 926.86C1279.91 927.844 1277.64 927.467 1274.81 927.407L1259.1 905.625L1242.16 906.002C1242.52 911.844 1244.23 923.229 1239.99 927.574C1237.77 927.626 1237.92 927.572 1235.97 926.457C1233.36 918.311 1234.65 879.826 1234.8 868.806ZM1242.15 899.212C1251.75 899.373 1263.32 900.544 1271.69 895.811C1284.05 872.822 1256.54 875.253 1242.12 875.384L1242.15 899.212Z"/><path fill="#ED6621" d="M636.451 867.893C637.637 867.957 641.753 868.15 642.175 868.697C647.913 876.136 667.173 919.578 668.507 926.379L667.776 927.145C659.699 927.827 658.028 918.928 655.889 912.462L643.943 912.573L623.159 912.509C621.028 917.819 619.52 923.723 614.818 926.695C611.837 927.057 613.121 927.371 610.748 926.23C610.731 921.236 632.739 875.555 636.451 867.893ZM626.022 906.039L639.233 906.17L652.506 906.1C648.784 897.248 643.999 886.204 639.282 877.842C634.759 887.192 630.339 896.592 626.022 906.039Z"/><path fill="#ED6621" d="M1310.74 868.796C1321.22 868.69 1342.07 867.925 1351.38 869.463C1353.26 871.224 1352.68 870.158 1353.03 872.853L1351.87 874.124C1345.09 876.758 1326.07 875.608 1317.85 875.46L1317.88 894.517C1324.37 894.349 1345.07 892.785 1349.1 896.267C1348.34 903.639 1329.8 901.298 1323.63 901.108C1319.75 901.11 1320.49 900.479 1318.47 902.494C1316.77 908.286 1317.63 914.37 1317.84 920.582C1324.74 920.477 1348.86 918.979 1353.63 922.554C1353.97 925.307 1354.18 924.052 1353.16 926.483C1347.29 928.193 1318.42 927.444 1310.56 927.384L1310.74 868.796Z"/><path fill="#ED6621" d="M855.534 868.897C862.331 868.771 895.028 866.632 898.119 871.879C894.164 877.306 869.737 875.352 862.622 875.077L863.083 894.345C871.267 894.269 885.684 893.292 893.192 895.382C894.301 895.691 894.2 896.382 894.662 897.695L893.459 899.119C886.604 901.812 874.694 900.985 866.993 900.899C865.911 900.91 865.021 901.108 863.942 901.275C861.38 905.385 862.404 915.27 862.588 920.537C869.034 920.439 897.91 918.367 899.305 924.614C895.303 929.022 863.232 927.412 855.706 927.354C855.106 908.833 855.565 887.627 855.534 868.897Z"/><path fill="#ED6621" d="M1000.8 868.895C1008.4 868.585 1039.05 866.973 1043.44 871.261L1043.15 872.846C1037.54 876.861 1015.47 875.483 1007.8 875.367L1007.83 894.28C1014.44 894.144 1035.02 892.637 1039.26 896.485C1039.13 903.177 1019.98 901.082 1014.7 900.91C1009.36 900.956 1007.44 901.885 1007.34 907.675C1007.26 911.807 1007.62 916.431 1007.74 920.592C1013.88 920.481 1042.16 918.447 1044.69 924.55C1040.65 928.945 1008.39 927.432 1000.82 927.391L1000.8 868.895Z"/><path fill="#ED6621" d="M1395.49 868.218C1401.24 868.024 1416.16 869.158 1417.96 875.814C1414.84 883.904 1404.91 874.587 1397.74 874.075C1391.98 873.663 1384.98 880.071 1386.47 884.039C1392.54 900.295 1434.11 893.171 1417.63 921.602C1414.69 926.635 1403.32 928.028 1397.69 928.262C1392.55 927.421 1379.48 924.442 1377.89 918.797C1378.41 916.396 1378.83 916.31 1380.57 914.578C1385.48 915.471 1391.37 920.879 1396.68 921.768C1402.77 922.785 1413.53 918.791 1414.58 912.163C1410.99 902.864 1395.02 901.816 1387.66 896.846C1371.23 885.751 1378.7 872.128 1395.49 868.218Z"/><path fill="#ED6621" d="M819.612 867.898L823.093 868.772C824.29 869.974 825.559 871.603 825.478 873.64C824.972 884.306 828.096 913.754 818.883 921.189C796.789 939.019 772.613 922.161 776.368 894.912C776.851 891.412 776.399 881.869 776.42 878.711C776.293 873.869 775.271 869.902 780.523 867.984C782.046 868.865 782.945 869.271 783.308 871.289C785.072 881.104 779.541 916.03 791.677 919.939C830.653 932.492 812.857 882.493 819.612 867.898Z"/><path fill="#ED6621" d="M946.971 868.166C960.285 867.078 964.157 868.875 974.752 876.265C973.251 878.291 971.578 880.068 969.902 881.95C928.719 850.25 911.55 927.843 959.414 920.814C963.985 918.961 969.573 913.098 973.673 915.683C974.355 921.329 967.212 925.162 962.693 926.704C954.69 929.363 945.962 928.775 938.388 925.065C931.477 921.615 926.664 915.745 924.251 908.445C921.567 900.54 922.17 891.89 925.925 884.435C930.697 875.045 937.423 871.102 946.971 868.166Z"/><path fill="#ED6621" d="M1234.07 683.647L1256.71 683.548C1256.95 691.088 1256.98 698.634 1256.78 706.176L1233.82 706.206C1234.11 698.963 1234.01 690.952 1234.07 683.647Z"/></svg>